<svg width="92" height="75" viewBox="0 0 92 75" fill="none" xmlns="http://www.w3.org/2000/svg">
<path d="M0 17.8546C0 16.7651 0.590676 15.7612 1.54307 15.2321L24.504 2.47607C26.5036 1.36519 28.9609 2.81109 28.9609 5.09854V56.9611C28.9609 58.0506 28.3702 59.0544 27.4178 59.5835L4.45693 72.3396C2.45734 73.4505 0 72.0046 0 69.7171V17.8546Z" fill="#57A67E"/>
<path d="M31.3743 5.09854C31.3743 2.81109 33.8316 1.36519 35.8312 2.47607L58.7921 15.2321C59.7445 15.7612 60.3352 16.7651 60.3352 17.8546V69.7171C60.3352 72.0046 57.8778 73.4505 55.8783 72.3396L32.9173 59.5835C31.9649 59.0544 31.3743 58.0506 31.3743 56.9611V5.09854Z" fill="#57A67E"/>
<path d="M62.7487 17.8546C62.7487 16.7651 63.3394 15.7612 64.2918 15.2321L87.2527 2.47607C89.2523 1.36519 91.7096 2.81109 91.7096 5.09854V56.9611C91.7096 58.0506 91.119 59.0544 90.1666 59.5835L67.2056 72.3396C65.2061 73.4505 62.7487 72.0046 62.7487 69.7171V17.8546Z" fill="#57A67E"/>
</svg>
